<svg xmlns="http://www.w3.org/2000/svg" viewBox="0 0 64 64">
  <defs>
    <linearGradient id="heartGradient" x1="0" x2="1" y1="0" y2="1">
      <stop offset="0%" stop-color="#ff6b6b" />
      <stop offset="100%" stop-color="#c53030" />
    </linearGradient>
    <filter id="softShadow" x="-15%" y="-15%" width="130%" height="130%">
      <feDropShadow dx="0" dy="2" stdDeviation="2" flood-opacity="0.25" />
    </filter>
  </defs>
  <rect width="64" height="64" rx="14" ry="14" fill="#1a1a2e" />
  <path
    d="M32 52s-2.4-2.12-6.51-5.52C18 40.76 10 34.2 10 24.5 10 17.6 15.6 12 22.5 12c4.05 0 7.68 1.85 9.5 4.84C33.82 13.85 37.45 12 41.5 12 48.4 12 54 17.6 54 24.5c0 9.7-8 16.26-15.49 21.98C34.4 49.88 32 52 32 52z"
    fill="url(#heartGradient)"
    filter="url(#softShadow)"
  />
</svg>
